<?xml version="1.0" standalone="no"?>
<!DOCTYPE svg PUBLIC "-//W3C//DTD SVG 20010904//EN"
 "http://www.w3.org/TR/2001/REC-SVG-20010904/DTD/svg10.dtd">
<svg version="1.0" xmlns="http://www.w3.org/2000/svg"
 width="286.000000pt" height="288.000000pt" viewBox="0 0 286.000000 288.000000"
 preserveAspectRatio="xMidYMid meet">

<g transform="translate(0.000000,288.000000) scale(0.100000,-0.100000)"
fill="#000000" stroke="none">
<path d="M638 2765 c-47 -32 -84 -94 -101 -170 -13 -57 -15 -60 -50 -67 -83
-17 -168 -82 -209 -161 -19 -35 -23 -62 -26 -163 -4 -117 -3 -121 21 -150 l25
-29 811 0 810 0 22 22 c29 29 39 105 28 205 -13 125 -63 199 -166 250 -62 30
-73 32 -172 33 l-106 0 -3 -41 c-2 -22 2 -52 7 -67 10 -26 12 -27 97 -27 75 0
93 -4 130 -25 56 -33 86 -94 82 -167 l-3 -53 -725 0 -725 0 -3 53 c-4 73 26
134 82 167 60 35 71 32 91 -22 26 -68 122 -163 165 -163 58 0 97 65 74 125 -8
20 -61 48 -80 41 -47 -18 -81 126 -53 226 5 21 20 50 33 64 19 23 25 25 43 15
12 -6 27 -27 34 -46 13 -35 13 -35 76 -35 l63 0 -6 28 c-10 39 -43 103 -68
130 -52 58 -136 69 -198 27z"/>
<path d="M1052 2767 c-58 -44 -93 -103 -107 -185 l-7 -41 -116 -3 -117 -3 -3
-47 c-5 -83 1 -88 131 -88 l113 0 27 -59 c33 -72 115 -151 157 -151 99 0 110
145 13 165 -45 10 -57 20 -70 56 -26 74 -11 187 31 235 19 23 25 25 43 15 12
-6 27 -27 34 -46 13 -35 13 -35 76 -35 35 0 63 2 63 5 0 20 -37 106 -57 133
-56 74 -148 95 -211 49z"/>
<path d="M1472 2773 c-47 -23 -88 -86 -109 -164 l-17 -68 -116 -3 -115 -3 -3
-47 c-5 -83 1 -87 135 -90 l116 -3 15 -44 c18 -54 105 -146 146 -157 37 -9 76
11 94 48 25 53 -17 108 -93 120 -45 7 -68 128 -41 219 28 97 79 113 107 34 13
-35 13 -35 76 -35 35 0 63 2 63 5 0 2 -7 26 -16 52 -42 127 -145 184 -242 136z"/>
<path d="M2349 2357 c-84 -45 -87 -52 -229 -617 -72 -283 -130 -516 -130 -517
0 -2 -4 -3 -10 -3 -6 0 -10 113 -10 320 0 348 -2 364 -55 388 -19 9 -223 12
-806 12 -847 0 -821 2 -847 -55 -9 -19 -12 -156 -12 -509 l0 -483 -49 -30
c-94 -59 -127 -187 -74 -289 24 -48 86 -93 150 -109 48 -12 48 -13 45 -50 -7
-68 8 -123 48 -183 47 -71 99 -107 182 -128 111 -29 220 9 287 99 50 67 53 77
60 172 l6 80 279 0 278 0 2 -75 c1 -68 5 -82 36 -134 62 -102 141 -149 255
-150 82 -1 145 25 202 82 82 82 107 215 60 317 -30 64 -120 147 -178 164 -88
27 -188 9 -269 -49 -27 -19 -42 -20 -389 -20 l-362 0 -32 24 c-102 78 -245 76
-357 -4 -20 -15 -44 -20 -87 -20 -52 0 -63 4 -86 28 -39 40 -37 92 4 126 l31
26 820 0 c898 0 865 -2 901 59 9 15 93 333 186 706 131 524 175 683 191 699
19 19 34 21 183 24 178 4 197 10 197 63 0 55 -15 59 -204 59 -162 0 -176 -2
-217 -23z m-509 -1002 l0 -455 -730 0 -730 0 0 455 0 455 730 0 730 0 0 -455z
m-1160 -827 c51 -27 78 -60 90 -112 21 -94 -58 -196 -154 -196 -190 0 -229
265 -47 320 43 14 65 11 111 -12z m1154 -6 c147 -85 73 -316 -96 -300 -82 8
-138 64 -146 146 -12 134 125 222 242 154z"/>
<path d="M802 1677 c-48 -51 -15 -131 53 -131 46 0 75 31 75 78 0 67 -83 101
-128 53z"/>
<path d="M1063 1685 c-71 -49 -5 -169 75 -136 54 22 67 87 27 126 -28 29 -70
32 -102 10z"/>
<path d="M1315 1675 c-60 -59 6 -159 82 -123 38 18 56 58 43 94 -22 57 -83 72
-125 29z"/>
<path d="M1570 1675 c-49 -52 -15 -129 56 -129 45 0 74 31 74 79 0 66 -84 99
-130 50z"/>
<path d="M574 1430 c-28 -11 -54 -48 -54 -76 0 -12 9 -33 21 -48 26 -33 86
-37 114 -6 53 59 -10 158 -81 130z"/>
<path d="M805 1417 c-59 -50 -26 -141 50 -141 101 0 109 140 9 160 -24 4 -37
0 -59 -19z"/>
<path d="M1083 1430 c-80 -32 -58 -150 28 -150 68 0 102 73 57 124 -27 29 -55
38 -85 26z"/>
<path d="M1350 1433 c-31 -11 -60 -47 -60 -73 0 -86 116 -111 149 -32 16 38 1
76 -38 97 -17 8 -31 15 -33 14 -2 0 -10 -3 -18 -6z"/>
<path d="M1569 1411 c-26 -27 -30 -37 -25 -63 12 -59 59 -88 111 -68 34 13 56
64 43 101 -12 35 -27 47 -66 55 -26 5 -36 1 -63 -25z"/>
<path d="M565 1158 c-49 -26 -59 -77 -24 -122 25 -32 75 -35 110 -7 34 27 32
86 -5 117 -30 26 -50 29 -81 12z"/>
<path d="M806 1149 c-55 -43 -23 -139 48 -139 69 0 102 85 51 135 -30 30 -64
32 -99 4z"/>
<path d="M1059 1141 c-17 -18 -29 -40 -29 -56 0 -38 41 -75 84 -75 80 0 103
115 29 149 -37 17 -52 14 -84 -18z"/>
<path d="M1333 1160 c-68 -28 -47 -150 27 -150 42 0 59 9 76 41 18 36 10 73
-23 99 -28 22 -46 24 -80 10z"/>
</g>
</svg>
