<?xml version="1.0" standalone="no"?>
<!DOCTYPE svg PUBLIC "-//W3C//DTD SVG 20010904//EN"
 "http://www.w3.org/TR/2001/REC-SVG-20010904/DTD/svg10.dtd">
<svg version="1.0" xmlns="http://www.w3.org/2000/svg"
 width="1200.000000pt" height="1200.000000pt" viewBox="0 0 1200.000000 1200.000000"
 preserveAspectRatio="xMidYMid meet">

<g transform="translate(0.000000,1200.000000) scale(0.100000,-0.100000)"
fill="#000000" stroke="none">
<path d="M5595 11299 c-940 -79 -1801 -388 -2635 -945 -754 -504 -1339 -1183
-1721 -1999 -257 -550 -412 -1139 -471 -1790 -18 -203 -15 -709 5 -925 138
-1427 791 -2740 1812 -3646 730 -648 1626 -1053 2640 -1193 296 -41 383 -46
780 -46 415 0 527 8 870 60 393 60 789 163 1215 318 120 43 320 123 385 152
16 7 80 36 140 63 111 51 286 135 383 186 l52 27 0 505 c0 478 -1 504 -17 495
-69 -37 -232 -139 -228 -143 3 -3 -1 -5 -8 -5 -7 0 -58 -24 -113 -54 -80 -43
-218 -110 -429 -209 -83 -38 -300 -124 -487 -191 -481 -173 -977 -280 -1492
-320 -188 -15 -643 -6 -826 15 -985 116 -1853 546 -2600 1287 -296 294 -550
648 -746 1039 -227 453 -360 891 -435 1440 -18 131 -22 213 -24 530 -4 456 11
623 87 995 117 575 343 1127 656 1600 328 498 798 941 1357 1280 86 52 379
203 483 248 853 372 1796 462 2657 252 124 -30 341 -96 462 -140 192 -69 572
-251 739 -354 28 -17 54 -31 57 -31 3 0 32 -18 64 -40 31 -22 63 -38 70 -36 7
3 12 1 10 -3 -1 -5 57 -48 128 -97 168 -112 525 -382 590 -445 17 -16 34 -29
38 -29 4 0 7 271 7 603 l0 603 -44 34 c-111 83 -335 212 -566 326 -74 37 -143
71 -154 76 -10 6 -75 35 -145 65 -501 219 -1055 365 -1621 428 -172 20 -757
28 -925 14z m2766 -620 c24 -17 26 -24 27 -99 1 -44 -2 -80 -5 -80 -4 0 -24
12 -45 26 l-38 27 0 72 c0 94 1 95 61 54z m341 -131 c16 -11 32 -17 37 -14 5
3 10 -48 10 -118 1 -68 -2 -127 -6 -129 -5 -3 -32 15 -61 40 l-52 45 0 97 c0
54 3 100 6 104 8 7 32 -2 66 -25z m276 -300 c2 -79 -1 -118 -8 -118 -6 0 -31
15 -55 33 l-44 32 -1 113 0 113 53 -28 52 -28 3 -117z m-450 -46 c2 -55 -1
-92 -7 -92 -5 0 -23 11 -39 25 -17 14 -35 25 -42 25 -7 0 -10 7 -6 16 3 9 6
49 6 91 l0 74 43 -23 42 -23 3 -93z m-480 10 c20 -13 22 -22 22 -109 l0 -94
-45 32 -45 32 0 84 c0 83 0 84 23 77 12 -4 32 -14 45 -22z m652 -297 l40 -25
0 -100 c0 -55 -3 -100 -6 -100 -4 0 -27 16 -50 36 l-44 35 0 90 c0 54 4 89 10
89 6 0 28 -11 50 -25z m273 -23 c14 -13 17 -32 17 -117 0 -56 -3 -104 -6 -108
-3 -3 -18 5 -33 19 -14 13 -32 22 -39 19 -7 -3 -11 -1 -8 4 3 5 -1 14 -9 21
-11 9 -15 35 -15 105 0 50 3 94 6 97 6 7 62 -19 87 -40z m-20 -379 l37 -23 0
-105 c0 -103 -5 -118 -33 -95 -7 5 -27 21 -44 36 -33 26 -33 26 -33 118 0 51
3 96 6 99 7 7 8 6 67 -30z m-13 -7131 l0 -98 -45 -22 c-25 -12 -50 -22 -56
-22 -6 0 -9 35 -7 92 l3 91 35 20 c19 10 39 23 45 28 21 20 25 5 25 -89z
m-162 -294 l-3 -93 -43 -22 c-24 -13 -47 -21 -52 -18 -4 2 -8 43 -9 89 l-2 84
43 25 c68 40 69 39 66 -65z m192 -106 l0 -98 -45 -22 c-25 -12 -50 -22 -55
-22 -6 0 -10 40 -10 94 l0 94 43 26 c66 40 67 38 67 -72z m-891 -141 l2 -78
-36 -22 c-60 -35 -65 -31 -65 59 l0 80 38 19 c20 11 42 20 48 21 7 0 12 -29
13 -79z m531 -101 l0 -91 -42 -18 c-24 -10 -46 -17 -50 -14 -10 5 -10 145 0
158 5 8 64 43 90 54 1 1 2 -40 2 -89z m250 -145 l0 -75 -40 -20 c-21 -11 -42
-20 -45 -20 -3 0 -5 35 -5 78 l0 78 33 17 c54 27 57 24 57 -58z m-420 -180 l0
-75 -39 -19 c-21 -11 -41 -17 -45 -14 -3 4 -6 37 -6 74 0 65 1 68 33 87 53 33
57 30 57 -53z"/>
<path d="M9310 10077 l0 -103 45 -32 c25 -18 48 -32 50 -32 3 0 5 47 5 105 l0
104 -44 31 c-25 16 -47 30 -50 30 -3 0 -6 -46 -6 -103z"/>
<path d="M9690 9810 l0 -160 74 -55 c41 -30 77 -55 80 -55 4 0 6 74 6 165 l0
165 -42 31 c-24 17 -60 40 -80 50 l-38 19 0 -160z"/>
<path d="M9148 9853 c-2 -5 -5 -51 -7 -104 l-3 -96 44 -33 c23 -19 48 -38 54
-42 9 -6 12 23 13 109 l1 118 -39 28 c-40 28 -57 33 -63 20z"/>
<path d="M9470 9513 l0 -158 70 -54 c39 -29 73 -51 76 -48 3 3 5 77 5 164 l-1
158 -27 22 c-15 12 -49 34 -75 48 l-48 26 0 -158z"/>
<path d="M9199 9408 c-1 -2 -2 -54 -4 -116 l-3 -113 59 -45 59 -45 0 125 0
125 -32 24 c-34 25 -77 50 -79 45z"/>
<path d="M9640 9022 l0 -197 61 -45 c33 -25 73 -55 89 -67 15 -13 31 -23 34
-23 4 0 5 95 4 212 l-3 212 -85 53 c-46 29 -88 53 -92 53 -4 0 -8 -89 -8 -198z"/>
<path d="M5085 9159 c-7 -24 -129 -325 -165 -409 -17 -40 -93 -226 -387 -950
-41 -102 -86 -210 -99 -240 -22 -51 -214 -522 -391 -960 -41 -102 -85 -210
-98 -240 -14 -30 -160 -388 -326 -795 -166 -407 -321 -787 -344 -845 -197
-483 -335 -823 -335 -827 0 -3 152 -3 338 -1 322 4 340 5 394 26 75 30 143 93
194 178 22 38 169 391 327 784 158 393 377 940 488 1215 111 275 232 579 271
675 77 195 138 330 148 330 6 0 39 -73 175 -395 42 -99 127 -283 190 -410 154
-313 177 -389 177 -580 0 -187 -38 -318 -175 -605 -41 -85 -105 -225 -142
-310 -37 -85 -73 -168 -80 -185 -21 -48 -277 -663 -292 -701 -5 -14 572 -25
660 -13 33 4 84 20 114 35 94 48 134 113 236 379 95 250 150 385 156 385 8 0
111 -214 161 -335 61 -146 122 -275 132 -275 4 0 8 -7 8 -15 0 -25 115 -149
130 -140 5 3 10 1 12 -5 5 -17 283 -30 511 -23 119 3 217 10 217 14 0 15 -45
124 -52 127 -4 2 -8 10 -8 18 0 21 -60 168 -72 175 -5 3 -9 10 -8 15 3 22 -9
46 -21 38 -8 -4 -10 -3 -5 4 9 15 -44 163 -55 156 -5 -3 -9 -10 -9 -15 0 -6 5
-7 11 -3 8 4 8 0 0 -15 -14 -25 -23 -28 -14 -4 5 11 3 14 -6 9 -9 -6 -8 2 3
22 15 28 14 34 -5 79 -43 97 -57 130 -99 235 -24 60 -47 105 -53 101 -6 -3 -7
-1 -3 5 7 12 -10 58 -33 86 -9 11 -11 16 -4 12 7 -4 1 19 -13 51 -41 92 -50
112 -89 208 -99 238 -124 304 -135 358 -11 56 -11 259 1 252 3 -2 11 18 18 46
7 27 22 67 32 89 11 23 17 46 13 52 -4 7 -3 8 4 4 7 -4 12 -2 12 4 0 5 9 30
21 54 11 25 22 51 23 58 1 7 8 23 14 36 7 12 10 28 6 34 -4 6 -3 8 3 5 6 -4
14 0 17 9 4 10 2 13 -6 7 -7 -4 -3 6 10 21 12 16 22 33 22 38 0 5 12 35 26 66
26 56 74 177 78 197 1 6 12 29 24 53 13 28 16 39 6 32 -7 -7 -14 -17 -14 -22
0 -5 -11 -21 -25 -36 -25 -27 -34 -49 -15 -37 12 7 12 -2 1 -30 -7 -17 -8 -17
-15 8 -4 17 -1 38 10 59 15 28 15 30 0 25 -10 -4 -16 -1 -16 7 0 8 6 17 13 19
6 3 0 6 -15 6 l-28 1 0 120 0 120 -26 0 c-25 0 -25 0 -22 78 6 152 -1 242 -17
242 -12 0 -15 20 -15 120 0 113 -1 120 -20 120 -19 0 -20 7 -20 103 -1 124 -9
210 -22 218 -6 4 -7 20 -3 38 4 20 3 31 -4 31 -6 0 -11 7 -11 15 0 16 -15 21
-23 8 -2 -5 -2 -1 1 7 15 49 11 61 -8 22 -13 -26 -19 -52 -15 -65 5 -17 4 -19
-4 -7 -8 12 -11 10 -19 -10 -5 -14 -17 -42 -26 -64 -9 -21 -13 -42 -10 -47 3
-5 1 -9 -4 -9 -6 0 -17 -18 -26 -40 -18 -45 -21 -63 -6 -40 5 8 10 11 10 5 0
-15 -16 -37 -25 -35 -4 0 -19 -27 -32 -62 -14 -35 -45 -112 -70 -173 -25 -60
-69 -168 -98 -240 -29 -71 -74 -182 -100 -245 -26 -63 -48 -119 -49 -125 -2
-5 -11 -27 -21 -48 -13 -25 -21 -33 -26 -25 -4 8 -38 88 -74 178 -132 324
-213 524 -340 835 -29 72 -177 435 -329 808 -151 372 -279 685 -284 694 -8 14
-11 13 -17 -8z m1506 -1452 c-10 -9 -11 -8 -5 6 3 10 9 15 12 12 3 -3 0 -11
-7 -18z m48 -21 c0 -6 -3 -5 -6 2 -4 10 -8 10 -21 0 -13 -11 -15 -10 -9 5 4
10 7 24 7 30 0 7 7 3 15 -7 8 -11 15 -25 14 -30z m-92 -174 c-14 -17 -16 -12
-10 23 5 25 7 27 13 10 4 -11 3 -26 -3 -33z m-24 3 c-7 -21 -12 -19 -10 4 0
11 5 18 9 15 4 -3 5 -11 1 -19z m316 -1069 c-9 -19 -15 -23 -21 -14 -4 7 -8
18 -8 23 0 6 4 4 9 -4 7 -11 10 -9 16 8 4 13 9 20 11 18 3 -2 -1 -16 -7 -31z
m22 -3 c-12 -20 -14 -14 -5 12 4 9 9 14 11 11 3 -2 0 -13 -6 -23z m-24 -48 c0
-8 -4 -15 -8 -15 -5 0 -5 -7 -2 -17 4 -10 2 -14 -4 -10 -6 4 -13 16 -16 27 -3
11 -1 18 3 15 5 -3 11 -1 15 5 9 14 12 13 12 -5z m-47 -109 c0 -3 -4 -8 -10
-11 -5 -3 -10 -1 -10 4 0 6 5 11 10 11 6 0 10 -2 10 -4z m-39 -49 c-10 -9 -11
-8 -5 6 3 10 9 15 12 12 3 -3 0 -11 -7 -18z m-16 -27 c3 -5 1 -10 -4 -10 -6 0
-11 5 -11 10 0 6 2 10 4 10 3 0 8 -4 11 -10z m180 -1400 c2 -12 1 -20 -2 -16
-4 4 -8 16 -10 28 -4 28 6 18 12 -12z m65 -140 c0 -5 -5 -10 -11 -10 -5 0 -7
5 -4 10 3 6 8 10 11 10 2 0 4 -4 4 -10z m93 -317 c4 -19 2 -33 -3 -33 -6 0
-10 17 -10 37 0 43 5 41 13 -4z m24 -25 c-3 -7 -5 -2 -5 12 0 14 2 19 5 13 2
-7 2 -19 0 -25z m38 -130 l-6 -33 20 30 c23 33 27 29 9 -10 -6 -14 -16 -24
-22 -22 -13 4 -20 33 -12 53 10 26 18 14 11 -18z m48 -21 c3 -8 -1 -14 -8 -14
-7 0 -11 6 -8 14 3 7 6 13 8 13 2 0 5 -6 8 -13z m28 -142 c11 7 11 3 3 -19
-11 -27 -24 -17 -23 17 1 17 3 24 6 14 2 -9 9 -15 14 -12z m42 -53 c9 -21 17
-45 17 -52 0 -21 -29 22 -30 43 0 9 -5 17 -11 17 -11 0 -9 -15 7 -55 7 -18 6
-18 -9 -6 -17 14 -22 46 -11 75 10 25 19 19 37 -22z"/>
<path d="M6821 8294 c0 -11 3 -14 6 -6 3 7 2 16 -1 19 -3 4 -6 -2 -5 -13z"/>
<path d="M6796 8254 c-4 -9 -4 -19 -1 -22 3 -3 5 0 5 7 0 7 5 9 10 6 6 -3 10
-2 10 4 0 18 -18 21 -24 5z"/>
<path d="M6776 8201 c-4 -7 -5 -15 -2 -18 9 -9 19 4 14 18 -4 11 -6 11 -12 0z"/>
<path d="M6752 8136 c-14 -39 -15 -56 -3 -56 5 0 7 10 4 23 -4 18 -3 19 7 7 9
-12 10 -11 5 9 -5 16 -4 21 4 17 7 -5 8 -1 4 10 -4 11 -3 15 5 10 6 -3 13 -3
16 2 2 4 -3 8 -13 9 -11 1 -22 -10 -29 -31z"/>
<path d="M6791 8124 c0 -11 3 -14 6 -6 3 7 2 16 -1 19 -3 4 -6 -2 -5 -13z"/>
<path d="M6715 8055 c-5 -17 -7 -36 -6 -44 1 -7 -2 -10 -8 -6 -15 9 -13 -6 3
-28 12 -16 13 -14 12 15 -2 18 1 41 6 51 5 10 8 23 5 30 -2 7 -7 -2 -12 -18z"/>
<path d="M6675 7960 c-4 -12 -2 -27 4 -34 6 -8 9 -21 5 -30 -3 -9 -1 -16 5
-16 6 0 11 12 11 26 0 15 4 23 11 18 6 -3 3 8 -5 25 -19 37 -23 38 -31 11z
m23 -25 c-3 -3 -9 2 -12 12 -6 14 -5 15 5 6 7 -7 10 -15 7 -18z"/>
<path d="M6705 7870 c-4 -12 -5 -24 -2 -27 3 -2 8 5 12 17 4 12 5 24 2 27 -3
2 -8 -5 -12 -17z"/>
<path d="M7055 7030 c3 -5 8 -10 11 -10 2 0 4 5 4 10 0 6 -5 10 -11 10 -5 0
-7 -4 -4 -10z"/>
<path d="M7097 7023 c3 -7 6 -13 8 -13 2 0 5 6 8 13 3 8 -1 14 -8 14 -7 0 -11
-6 -8 -14z"/>
<path d="M7061 6961 c-8 -5 -9 -11 -3 -15 5 -3 12 1 16 9 6 17 6 18 -13 6z"/>
<path d="M7037 6883 c-4 -3 -7 -11 -7 -17 0 -6 5 -5 12 2 6 6 9 14 7 17 -3 3
-9 2 -12 -2z"/>
<path d="M7011 6823 c0 -25 1 -26 9 -8 12 27 12 35 0 35 -5 0 -10 -12 -9 -27z"/>
<path d="M6996 6787 c5 -14 2 -16 -12 -10 -17 6 -18 5 -5 -11 13 -16 15 -16
24 -1 6 11 5 21 -3 28 -8 9 -10 8 -4 -6z"/>
<path d="M6968 6723 c3 -18 7 -21 13 -11 12 18 11 25 -4 31 -10 4 -13 -2 -9
-20z"/>
<path d="M6880 6704 c0 -8 5 -12 10 -9 6 4 8 11 5 16 -9 14 -15 11 -15 -7z"/>
<path d="M9738 2912 l-88 -47 0 -172 c0 -107 4 -173 10 -173 5 0 48 19 95 42
l85 42 0 178 c0 98 -3 178 -7 178 -5 0 -47 -22 -95 -48z"/>
<path d="M9318 2673 l-48 -26 0 -99 0 -99 53 28 52 28 3 98 c1 53 -1 97 -5 97
-4 0 -29 -12 -55 -27z"/>
<path d="M9433 2402 l-53 -26 0 -103 c0 -60 4 -103 10 -103 5 0 30 10 55 22
l45 22 0 108 c0 59 -1 108 -2 107 -2 0 -27 -12 -55 -27z"/>
<path d="M9183 2262 l-52 -27 -1 -102 c0 -64 4 -103 10 -103 6 0 33 12 60 26
l50 26 0 104 c0 57 -3 104 -7 104 -5 -1 -32 -13 -60 -28z"/>
<path d="M9665 2202 l-70 -38 -3 -137 c-1 -75 1 -137 5 -137 4 1 37 16 73 34
l65 33 2 141 c1 78 1 142 0 142 -1 0 -33 -17 -72 -38z"/>
<path d="M9288 1844 l-48 -24 0 -90 c0 -50 2 -90 5 -90 2 0 25 10 50 22 l45
22 0 93 c0 51 -1 93 -2 93 -2 -1 -24 -12 -50 -26z"/>
</g>
</svg>
